<?xml version="1.0" encoding="UTF-8"?>
<!DOCTYPE svg PUBLIC "-//W3C//DTD SVG 1.1//EN" "http://www.w3.org/Graphics/SVG/1.1/DTD/svg11.dtd">
<!-- Creator: CorelDRAW 2018 (64-Bit) -->
<svg xmlns="http://www.w3.org/2000/svg" xml:space="preserve" width="301px" height="180px" version="1.1" style="shape-rendering:geometricPrecision; text-rendering:geometricPrecision; image-rendering:optimizeQuality; fill-rule:evenodd; clip-rule:evenodd"
viewBox="0 0 40.62 24.28"
 xmlns:xlink="http://www.w3.org/1999/xlink">
 <defs>
  <style type="text/css">
   <![CDATA[
    .fil0 {fill:#364F6B}
   ]]>
  </style>
 </defs>
 <g id="Layer_x0020_1">
  <metadata id="CorelCorpID_0Corel-Layer"/>
  <g id="_2424042450464">
   <path class="fil0" d="M11.55 6.67c0.58,-0.59 4.29,-4.22 4.74,-4.22l8.05 0c0.3,0 2.19,1.76 2.51,2.1 0.51,0.53 0.67,0.67 1.19,1.11 0.38,0.32 0.82,0.67 1.06,1.19l-2.24 2.34c-1.03,1.28 -4.5,4.78 -5.49,6.01 -0.34,0.43 -0.8,0.77 -1.07,1.13l-5.5 -6c-0.68,-0.84 -2.73,-2.72 -3.25,-3.66zm20.82 -0.13c-1.42,-1.43 -2.94,-2.64 -4.3,-4.09l4.32 -0.02c0.62,0 3.1,2.48 3.76,3.16 0.39,0.38 0.82,0.67 1.2,1.05 -0.2,0.43 -0.42,0.63 -0.81,0.98l-12.04 13.21c-0.41,-0.22 -2.39,-2.3 -2.59,-2.84 0.66,-0.56 0.81,-0.9 1.34,-1.43 0.57,-0.56 0.79,-0.9 1.27,-1.41l7.85 -8.61zm-26.74 -2.1c0.83,-0.71 1.91,-2.01 2.61,-2.01 1.12,0 3.3,-0.08 4.3,0.05 -0.43,0.44 -0.62,0.65 -1.08,1.02 -0.45,0.38 -0.59,0.57 -1.04,1 -0.68,0.66 -1.53,1.28 -2.17,2.04 0.24,0.5 4.52,4.93 5.21,5.77l2.62 2.87c0.45,0.56 0.9,0.92 1.35,1.47 0.24,0.3 0.37,0.49 0.65,0.76 0.37,0.35 0.35,0.28 0.61,0.63l-2.53 2.78 -2.43 -2.65c-0.28,-0.33 -0.54,-0.48 -0.83,-0.82l-4.85 -5.38c-1.37,-1.36 -2.88,-3.25 -4.02,-4.42 -0.4,-0.41 -0.55,-0.35 -0.75,-0.88l2.35 -2.23zm-5.63 2.1l11.04 12.16c0.41,0.5 0.57,0.63 1.05,1.11l3.04 3.36c0.41,0.5 0.54,0.63 1.03,1.09l4.09 -4.4c0.92,0.7 2.25,2.43 3.13,3.37 0.22,0.24 0.93,0.95 1.11,1.05l6.01 -6.6c0.34,-0.42 0.64,-0.65 1,-1.04 0.4,-0.45 0.54,-0.72 1.02,-1.16 0.44,-0.39 0.56,-0.66 0.95,-1.09l4.04 -4.4c0.55,-0.64 2.68,-2.79 3.11,-3.45l-1.7 -1.66c-0.32,-0.3 -0.58,-0.48 -0.91,-0.77l-2.54 -2.43c-0.69,-0.62 -1.13,-0.87 -1.75,-1.68l-26.81 0c-0.31,0.56 -6.55,5.93 -6.91,6.54z"/>
   <path class="fil0" d="M18.98 3.63c0.49,0.47 1.06,1.09 1.6,1.56 0.53,0.45 1.29,0.92 1.61,1.66l-2.35 2.48c-0.38,0.47 -0.8,0.8 -1.17,1.25l-1.08 1.18c0.26,0.42 1.18,1.48 1.69,1.73 0.54,-0.84 2.46,-2.7 3.13,-3.51 0.98,-1.19 2.14,-2.24 3.06,-3.44 -0.25,-0.25 -0.52,-0.58 -0.81,-0.83 -2.51,-2.19 -1.54,-2.3 -5.68,-2.08z"/>
  </g>
 </g>
</svg>
