<?xml version="1.0" encoding="UTF-8"?>
<!DOCTYPE svg PUBLIC "-//W3C//DTD SVG 1.1//EN" "http://www.w3.org/Graphics/SVG/1.1/DTD/svg11.dtd">
<!-- Creator: CorelDRAW 2018 (64-Bit) -->
<svg xmlns="http://www.w3.org/2000/svg" xml:space="preserve" width="3026px" height="2100px" version="1.1" style="shape-rendering:geometricPrecision; text-rendering:geometricPrecision; image-rendering:optimizeQuality; fill-rule:evenodd; clip-rule:evenodd"
viewBox="0 0 380.23 263.84"
 xmlns:xlink="http://www.w3.org/1999/xlink">
 <defs>
  <style type="text/css">
   <![CDATA[
    .fil0 {fill:#E6E6E6}
   ]]>
  </style>
 </defs>
 <g id="Layer_x0020_1">
  <metadata id="CorelCorpID_0Corel-Layer"/>
  <g id="_2424135417712">
   <g>
    <path class="fil0" d="M162.8 15.18l50.26 0c1.57,0 9.21,8.01 10.94,9.47l0.86 0.71c0.49,0.41 0.45,0.37 0.86,0.72 0.76,0.67 1.14,1.05 1.87,1.79 2.94,2.97 12.77,11.26 14.26,13.49l-29.98 32.84c-1.53,1.52 -1.94,2.45 -3.38,3.94 -3.54,3.67 -18.51,20.47 -20.56,21.85 -2.67,-1.79 -4.27,-4.58 -6.67,-6.94l-20.25 -22.16c-2.54,-3.29 -13.67,-14.33 -16.75,-18.32l-6.71 -7.42c-1.35,-1.33 -2.37,-2.46 -3.54,-3.79 1.37,-2.05 21.13,-19.4 24.75,-22.9 1.01,-0.97 2.52,-3.28 4.04,-3.28zm72.77 0l25.68 -0.03c5.44,-0.05 3.18,0.52 7,3.47l24.38 22.74c-1.34,2 -3.25,3.23 -4.79,5.15l-9.99 10.95c-1.06,1.2 -1.17,1.66 -2.35,2.88l-49.74 54.45c-0.96,1 -1.7,1.59 -2.63,2.6 -1.11,1.19 -1.23,1.69 -2.34,2.89l-7.73 7.97c-2.28,-3.4 -13.31,-14.48 -15.18,-17.27 1.65,-1.11 2.99,-2.62 4.19,-4.19l52.48 -57.45c0.78,-0.78 1.37,-1.29 2.09,-2.1 0.91,-1.04 0.92,-1.31 1.84,-2.35 1.49,-1.69 3.1,-2.78 4.31,-4.58l-13.75 -12.42c-1.19,-1.15 -1.96,-2.01 -3.12,-3.17l-6.81 -6.27c-1.14,-1.15 -2.85,-2.32 -3.54,-3.27zm-121.97 25.13c1.24,2.35 1.93,2.74 3.79,4.58l52.44 57.49c1.28,1.65 6.37,6.45 8.16,9.12 -1.25,1.44 -2.37,2.64 -3.8,4.06l-7.8 8.43c-1.42,1.78 -2.22,3 -4.11,4.26 -3.51,-5.24 -25,-26.89 -29.53,-32.75l-22.17 -24.43c-0.88,-1.01 -1.67,-1.65 -2.62,-2.61l-24.73 -27.63 26.79 -24.51c2.08,-1.93 4.01,-1.14 9.34,-1.14 6.98,0 13.96,0 20.93,0l-23.15 21.86c-1.49,1.37 -2.42,1.6 -3.54,3.27zm-50.78 0l27.88 30.74c1.38,1.43 1.7,2.26 3.13,3.69l25.13 27.21c1.22,1.39 1.46,2.01 2.88,3.41l28.28 30.87c2.49,2.5 10.23,11.84 12.68,13.49 1.02,-0.74 1.83,-2.11 3.01,-3.28l6.29 -6.8c1.51,-1.48 1.84,-2.18 3.14,-3.66l12.69 -13.48 12.97 13.73c1.24,1.34 1.51,2.06 2.86,3.42 1.26,1.27 2.18,2.01 3.32,3.48 1.56,2.03 4.61,5.94 7.03,6.59 0.47,-1.77 1.53,-2.36 2.75,-3.54 1.43,-1.39 1.73,-1.84 2.93,-3.35l31.33 -34.1c1.24,-1.48 1.47,-1.97 2.9,-3.38l29.56 -32.21c0.41,-0.46 0.41,-0.48 0.72,-0.85 3.05,-3.61 28.17,-29.83 28.75,-31.98l-18.98 -17.67c-0.98,-0.87 -1.67,-1.66 -2.62,-2.62 -0.94,-0.94 -1.63,-1.74 -2.64,-2.59l-8.22 -7.48c-1.91,-1.46 -9.82,-9.95 -11.52,-9.95l-162.28 0c-1.7,0 -4.34,3.71 -5.63,4.84l-35.36 32.7c-1.57,1.3 -1.81,1.02 -2.98,2.77z"/>
    <path class="fil0" d="M290.54 208.87c1.98,0.53 1.32,1.03 3.66,1.57l0 31.41c-5.68,3.01 -3.27,2.07 -3.14,7.85 12.47,0 15.23,1.59 14.32,-4.79l-1.36 -1.88c-0.67,-0.5 -1.72,-1 -2.03,-1.4l-0.45 -20.7c-0.05,-3.15 -0.53,-3.89 -0.53,-6.82 0.87,1.26 1.09,2.94 1.71,4.57 2.29,6 3.82,8.06 6.66,13.75l6.99 13.43c2.39,4.83 0.15,3.84 12.9,3.84l0 -39.26c5.5,-1.28 3.22,-4.68 3.15,-7.85l-13.62 0c-0.56,2.41 -0.52,3.24 -0.52,6.28 1.52,0.41 2.04,1.24 3.67,2.1l-0.02 20.43c0,3.16 0.54,3.8 0.54,6.79 -0.07,-0.11 -0.15,-0.43 -0.17,-0.36l-0.7 -1.91c-2.6,-8.18 -4.1,-9.22 -7.34,-15.7 -2.73,-5.47 -5.94,-12.96 -9.07,-17.63l-14.13 0c-0.19,2.25 -0.52,3.24 -0.52,6.28z"/>
    <path class="fil0" d="M199.45 41.36c-1.41,2.09 -26.19,28.3 -28.27,31.4 0.82,1.23 1.39,1.56 2.39,2.85 1.08,1.37 1.23,1.59 2.45,2.78 3.77,3.69 2.68,4.6 5.63,4.84 0.52,-1.92 14.51,-16.19 17.23,-19.41l2 -2.18c0.91,-0.91 1.49,-1.42 2.37,-2.34l17.14 -18.99c-2.61,-1.75 -9.22,-8.68 -11.39,-10.6 -1.57,-1.38 -2.36,-1.81 -3.93,-3.4 -4.28,-4.34 -2.38,-4.35 -10.33,-4.32 -5.06,0.01 -10.12,0 -15.18,0 0.41,1.55 5.4,5.79 6.93,7.2 2.63,2.43 11.57,10.08 12.96,12.17z"/>
    <path class="fil0" d="M216.2 241.85l-6.28 0 0 -31.41c11.94,0 15.7,3.75 15.7,17.8 0,3.52 -0.56,7.31 -1.95,9.56 -1.37,2.22 -4.07,4.05 -7.47,4.05zm-19.99 -34.04c-0.14,1.73 2.63,2.56 3.76,3.16l0 30.88c-5.71,1.33 -3.14,3.06 -3.14,7.85l20.42 0c10.25,0 18.84,-8.48 18.84,-19.89 0,-9.09 -0.47,-18.32 -9.76,-23.74 -1.2,-0.7 -2.8,-1.42 -3.91,-1.85 -6.35,-2.45 -17.87,-1.63 -25.59,-1.63l-0.62 5.22z"/>
    <path class="fil0" d="M0 223.01c0,10.73 -0.02,27.22 16.23,27.22 11.04,0 10.75,0.65 19.89,-4.19l0 -12.56c1.06,-0.71 2.08,-1.39 3.14,-2.1 -0.21,-2.54 -0.52,-1.38 -0.52,-5.76l-16.75 0c0,2.91 -0.48,3.48 -0.53,5.76 1.76,1.18 1.4,1.86 4.19,2.1l0 7.85c-2.57,0.6 -3.07,1.04 -6.28,1.04 -11.1,0 -11.09,-24.57 -5.14,-30.26 3.6,-3.44 7.22,-1.54 11.94,-1.14 0,3.39 0.46,3.21 1.05,5.75l6.81 0c1.14,-4.92 1.57,-3.02 1.57,-9.42 0,-5.73 -35.6,-12.96 -35.6,15.71z"/>
    <path class="fil0" d="M246.99 207.81c-0.14,1.73 2.63,2.56 3.76,3.16l0 30.88c-5.72,1.33 -3.14,3.06 -3.14,7.85l31.93 0 0 -12.04c-2.36,-0.05 -2.08,-0.52 -4.71,-0.52 -2.95,0 -1.46,4.71 -4.19,4.71l-9.94 0 0 -12.56 9.42 0c0.37,1.6 0.81,2.01 1.57,3.14 2.02,-0.17 2.06,-0.52 4.71,-0.52l0 -12.57 -4.17 -0.61c-1.33,-0.13 -1.13,2.71 -3.16,2.71l-8.37 0 0 -11 9.42 0c4.05,0 -1.44,6.6 8.9,4.19l0 -12.04 -31.41 0 -0.62 5.22z"/>
    <path class="fil0" d="M148.15 220.91c1.42,0.96 1.44,1.17 3.16,2.07 2.88,1.52 3.81,5.92 6.04,11.24 4.85,11.59 8.34,15.07 4.94,20.72 -0.83,1.38 -1.58,2.44 -3.67,2.62 0,-6.03 -0.89,-5.24 -5.76,-5.24 -2.08,0 -6.44,11.52 3.66,11.52 6.63,0 9.2,-0.53 12.93,-8.02l13.25 -31.24c2.22,-3.46 6.24,-0.08 4.19,-8.9l-15.19 0c-0.96,4.14 -1.28,6.42 2.62,7.33 -0.3,3.66 -5.12,12.32 -5.23,17.27 -1.15,-0.84 -2,-5.21 -3.07,-8.45 -0.55,-1.64 -1.06,-2.84 -1.57,-4.19 -0.61,-1.62 -0.96,-3.2 -1.65,-4.63 1.68,-0.89 1.77,-1.18 3.15,-2.1 -2.81,-5.84 5.97,-5.23 -15.71,-5.23 -2.65,0 -0.94,2.83 -2.09,5.23z"/>
    <path class="fil0" d="M341.84 211.49c0,1.92 1.12,1.57 3.66,1.57 2.62,0 1.27,-2.62 3.67,-2.62l6.8 0 0 31.41c-5.38,1.26 -3.47,3.84 -3.14,7.85l16.23 0c0.09,-4.16 2.46,-6.54 -3.14,-7.85l0 -31.41 6.8 0c3.31,0 -0.85,2.62 5.76,2.62 2.54,0 1.57,-3.81 1.57,-10.47l-38.21 0 0 8.9z"/>
    <path class="fil0" d="M91.61 242.9c-5.72,0 -7.33,-3.52 -7.33,-10.47 0,-1.12 0.71,-5.67 0.95,-6.38 1.85,-5.4 12.04,-6.2 11.99,6.38 -0.02,4.45 -0.81,10.47 -5.61,10.47zm-17.27 -10.99c0,14.94 5.44,18.32 17.79,18.32 19.69,0 20.54,-35.08 1.57,-35.08l-4.71 0c-9.02,0 -14.65,7.59 -14.65,16.76z"/>
    <path class="fil0" d="M48.68 201.02c-0.4,1.73 -0.42,4.45 -1.04,5.76 1.36,0.91 2.21,1.93 4.19,2.09l0 32.98c-0.72,0.38 -1.39,0.64 -2.08,1.07 -0.99,0.61 -1.14,0.9 -2.11,1.55 0.58,1.22 0.68,3.66 1.04,5.23 20.21,0 15.23,1.31 16.76,-5.23 -1.71,-1.14 -1.21,-1.52 -3.67,-2.1l0.03 -37.72c0.08,-4.94 0.94,-4.15 -8.4,-4.15 -2.63,0 -2.35,0.46 -4.72,0.52z"/>
    <path class="fil0" d="M117.26 221.44c1.56,0.82 1.75,1.41 3.67,1.57l0 19.36c-1.92,0.16 -2.11,0.75 -3.67,1.58 0,2.65 0.52,2.85 0.52,5.75l19.9 0c2.64,-11.34 -6.81,-5.01 -6.81,-9.42 0,-13.64 -2.1,-16.23 7.85,-16.23 1.2,0 0.61,0.18 2.1,0.53 0.89,-3.82 0.52,-4.87 0.52,-9.43 -7.29,-0.16 -5.52,-0.35 -11.51,3.67l0 -4.19c-2.15,0 -9.91,-0.07 -11.25,0.8 -1.33,0.87 -1.32,3.87 -1.32,6.01z"/>
   </g>
  </g>
 </g>
</svg>
